<svg xmlns="http://www.w3.org/2000/svg" width="21" height="21" viewBox="0 0 21 21" fill="none">
    <path d="M7.84855 19.1315C8.32542 19.1315 8.712 18.7459 8.712 18.2702C8.712 17.7945 8.32542 17.4088 7.84855 17.4088C7.37169 17.4088 6.98511 17.7945 6.98511 18.2702C6.98511 18.7459 7.37169 19.1315 7.84855 19.1315Z" stroke="#FFFFFF" stroke-linecap="round" stroke-linejoin="round"/>
    <path d="M17.3465 19.1315C17.8233 19.1315 18.2099 18.7459 18.2099 18.2702C18.2099 17.7945 17.8233 17.4088 17.3465 17.4088C16.8696 17.4088 16.483 17.7945 16.483 18.2702C16.483 18.7459 16.8696 19.1315 17.3465 19.1315Z" stroke="#FFFFFF" stroke-linecap="round" stroke-linejoin="round"/>
    <path d="M0.940918 1.04358H4.3947L6.70874 12.5768C6.78769 12.9733 7.00396 13.3295 7.31966 13.5831C7.63537 13.8366 8.03041 13.9713 8.43563 13.9635H16.8283C17.2335 13.9713 17.6286 13.8366 17.9443 13.5831C18.26 13.3295 18.4763 12.9733 18.5552 12.5768L19.9367 5.35023H5.25815" stroke="#FFFFFF" stroke-linecap="round" stroke-linejoin="round"/>
</svg>