<svg xmlns="http://www.w3.org/2000/svg" width="125" height="125" viewBox="0 0 125 125" fill="none">
  <path d="M54.6141 4.8378C46.4485 5.85768 42.2259 7.11291 26.4262 13.0753C21.8121 14.8273 14.7931 17.364 10.8501 18.6976C6.90715 20.0313 3.41162 21.2604 3.10402 21.4435C2.54473 21.705 2.51677 21.9142 2.51677 28.7133C2.51677 36.4278 2.82438 41.2656 3.63534 46.4435C4.80983 53.8964 7.27068 62.6045 9.84339 68.4361L10.6823 70.3451L9.67561 74.0585C8.02572 80.1516 7.71811 82.3221 7.69015 87.0815C7.69015 91.9455 7.99775 93.4361 9.67561 96.7311C11.0179 99.2939 14.1499 102.275 16.9183 103.609C20.302 105.204 21.5884 105.518 25.1678 105.518C28.7192 105.518 30.8165 105.021 33.9206 103.504L35.5425 102.693L39.0939 105.962C45.5257 111.872 52.6286 116.606 59.7595 119.744L62.3322 120.894L65.7718 119.325C72.1756 116.396 79.0548 111.742 85.0951 106.198L88.9262 102.667L90.9675 103.609C93.6801 104.89 95.6096 105.387 98.462 105.57C106.236 106.067 113.339 101.491 115.912 94.3253C117.785 89.0951 117.506 83.7604 114.877 73.6401C114.094 70.7112 114.038 70.1882 114.346 69.456C115.38 67.0763 117.534 60.7478 118.4 57.6098C120.861 48.5878 121.672 42.4163 121.84 30.6485L121.98 21.705L120.721 21.1819C119.994 20.8943 116.695 19.7175 113.339 18.593C109.983 17.4686 102.768 14.8535 97.3154 12.8137C83.6689 7.68822 78.7472 6.17149 71.868 5.07316C68.2047 4.49785 58.3893 4.36709 54.6141 4.8378ZM69.9664 9.30956C76.4821 10.1464 81.5995 11.6108 92.7013 15.8211C101.286 19.0637 109.256 21.9403 113.535 23.3524L117.03 24.5292L117.226 26.9612C117.45 29.5501 117.086 38.7813 116.611 42.7562C116.107 46.8619 114.933 53.0857 113.954 56.616C112.78 60.8524 111.913 63.4937 111.605 63.6506C111.493 63.729 110.906 62.6568 110.319 61.2447C109.732 59.8587 108.641 57.479 107.914 56.0146L106.544 53.2949L107.103 51.4382C108.389 47.1495 109.06 41.3441 109.06 34.5972V30.3347L107.746 29.7071C106.991 29.3671 104.53 28.2949 102.209 27.3273C90.7998 22.5418 81.5156 19.7698 72.5671 18.4361C68.6801 17.8608 59.6476 17.6255 55.481 18.0177C45.1901 19.0114 33.3613 22.3849 20.4139 28.0596L15.5201 30.2301L15.5761 36.2186C15.604 42.4947 16.1633 47.3064 17.3098 51.5167L17.8132 53.4257L16.8344 55.4131C16.3031 56.5114 15.2684 58.7865 14.5414 60.4863C13.8143 62.1861 13.0872 63.5983 12.9754 63.6244C12.472 63.729 9.73153 54.2625 8.80872 49.2939C7.85793 44.0114 7.52236 40.2196 7.35458 32.5313L7.18679 24.66L9.39596 23.9278C13.9821 22.411 20.4418 20.0836 25.1678 18.2792C41.8904 11.8985 46.7282 10.3817 53.4955 9.41416C57.9418 8.78655 65.632 8.73425 69.9664 9.30956ZM72.9306 22.9863C81.5995 24.3723 89.3736 26.752 99.8042 31.1453L104.39 33.0805L104.223 38.3106C104.027 44.456 103.468 48.6401 102.992 47.4372C102.936 47.2803 101.902 45.7635 100.699 44.0376L98.4899 40.8995L94.2114 39.9319C91.8344 39.4089 88.6465 38.7813 87.1085 38.5721C84.2841 38.1799 79.5582 38.0491 78.7472 38.3368C78.4955 38.4152 77.8523 39.069 77.2931 39.775L76.2863 41.0564H62.3322C54.67 41.0564 48.3781 40.978 48.3781 40.8472C48.3781 40.7426 47.8188 40.0888 47.1756 39.4089L45.9452 38.1799H43.0369C39.1219 38.1799 32.6901 39.1474 27.349 40.5334C26.2025 40.8472 25.4474 41.7102 22.9586 45.5805C22.1476 46.8619 21.3646 47.8033 21.2528 47.6725C20.8333 47.2541 20.3859 43.1485 20.2181 38.3106C20.0783 34.2311 20.1342 33.2897 20.4418 33.0543C21.6722 32.1129 33.8646 27.3796 39.4295 25.6799C43.1208 24.5292 48.4899 23.3524 52.0134 22.8817C53.6353 22.6725 55.3412 22.4633 55.7886 22.3849C56.264 22.3326 59.5358 22.3064 63.0593 22.3587C68.0649 22.411 70.2461 22.5418 72.9306 22.9863ZM86.9687 42.024C88.4228 42.2332 90.9396 42.7301 92.5615 43.1223L95.4977 43.8022L95.6376 44.9006C95.7494 45.7897 96.0011 46.1819 97.1197 47.0711C98.6577 48.3524 100.783 51.569 103.188 56.3022C107.802 65.3765 110.71 73.7447 111.997 81.5899C113.535 90.9257 111.298 96.9926 105.229 99.9738C101.258 101.909 97.4273 101.883 93.0649 99.843C91.2472 98.9801 90.1566 98.1955 87.6118 95.8681C84.6476 93.2008 80.1174 87.9706 77.8803 84.6495L77.0414 83.4204L62.2203 83.4727L47.4273 83.5512L45.4418 86.3232C42.8132 90.0627 39.7651 93.5146 36.5772 96.4173C30.9843 101.438 25.4195 102.615 19.5749 99.9999C14.821 97.8817 12.0246 93.2269 12.0246 87.3953C12.0246 79.184 16.3031 65.6642 22.3434 54.7855C25.1678 49.6861 26.4541 47.8294 27.8244 46.8096C28.7192 46.1296 28.9709 45.7897 29.0828 44.9006C29.2226 43.9068 29.3065 43.7761 30.3132 43.4623C32.5224 42.7824 38.5067 41.7886 41.2472 41.6579L44.0436 41.501L45.1063 42.9131C45.6935 43.6976 46.3087 44.5083 46.4206 44.7175C46.6443 45.0575 48.8814 45.1098 62.472 45.1882L78.2718 45.2928L78.7472 44.4037C78.9989 43.933 79.5861 43.0439 80.0615 42.4163L80.9284 41.2918L82.6063 41.4487C83.557 41.5533 85.5145 41.7886 86.9687 42.024ZM75.5872 89.2782C76.1465 90.0627 76.6219 90.7949 76.6219 90.9257C76.6219 91.161 73.7696 93.6453 70.1901 96.5481C69.1834 97.3587 67.0022 98.9016 65.3523 99.9999L62.3042 101.961L61.5772 101.517C59.1163 100.052 55.7606 97.751 53.6913 96.1296C50.6991 93.7761 47.8188 91.2656 47.8188 91.0041C47.8188 90.9257 48.3221 90.1673 48.9653 89.3566L50.0839 87.866H62.3042H74.5246L75.5872 89.2782ZM47.3714 96.705C50.3915 99.3985 55.1734 102.798 59.34 105.256L62.3042 106.982L64.6532 105.622C69.2114 102.955 74.0212 99.4508 77.6566 96.1558L79.67 94.2991L82.3266 96.9142C83.7807 98.3263 84.9832 99.6338 85.0112 99.7907C85.0112 100.261 78.0481 106.433 75.1678 108.551C72.0358 110.826 68.1208 113.232 64.821 114.906L62.3881 116.135L60.0671 115.037C55.3132 112.814 50.0839 109.362 44.7427 104.995C42.8971 103.452 40.9396 101.7 40.3803 101.072L39.4016 99.9215L42.0022 97.1757C43.4284 95.6589 44.6588 94.4299 44.7148 94.4037C44.7707 94.4037 45.9731 95.4236 47.3714 96.705Z" fill="white"/>
  <path d="M38.4508 45.7897C35.9899 46.0773 32.9698 46.9142 31.264 47.7771C29.5022 48.6663 27.2371 50.9414 25.783 53.2426C25.1118 54.2625 23.9094 56.7991 23.0704 58.8912C19.7986 67.0502 18.2326 73.797 17.981 80.9361C17.7293 87.7615 18.4284 90.455 21.0011 92.7039C22.9586 94.4037 24.5805 95.0313 26.9854 95.0575C30.1454 95.0575 31.4877 94.2991 36.3534 89.7228C38.5906 87.6307 41.6107 84.5188 43.0649 82.819L45.6935 79.7594H62.2203H78.7192L81.5156 82.9497C83.0537 84.728 86.0179 87.7615 88.0872 89.7228C91.1913 92.6255 92.198 93.4361 93.7919 94.1684C96.4485 95.3713 98.7416 95.3713 101.342 94.1684C103.44 93.2008 104.362 92.2855 105.453 90.0889C108.837 83.3158 105.761 65.6903 99.0772 53.5564C96.057 48.0648 91.1913 45.6589 82.9418 45.6328H79.3624L78.859 46.8096L78.3557 47.9863L62.4441 48.0648L46.5324 48.1171L45.9452 46.8096L45.3579 45.502L42.8691 45.5282C41.5268 45.5543 39.5414 45.6589 38.4508 45.7897ZM87.9194 51.6213C89.8769 52.3796 90.6879 54.8117 89.6532 56.7207C87.8635 59.911 82.4944 58.5512 82.4944 54.9163C82.4944 52.275 85.2628 50.5753 87.9194 51.6213ZM41.359 53.5303C41.8624 53.9487 41.9463 54.3409 42.0022 56.3545L42.0861 58.7081L44.6029 58.8389L47.1197 58.9696L47.2036 61.8985C47.2875 64.6966 47.2595 64.8535 46.6722 65.1412C46.2807 65.3242 45.4418 65.3765 44.4351 65.2719C41.9743 65.0366 41.9463 65.0627 41.9463 67.7301C41.9463 70.7635 41.8344 70.8681 38.6185 70.8681C37.1085 70.8681 36.0738 70.7635 35.8501 70.5543C35.6543 70.3713 35.5145 69.3776 35.5145 68.0177C35.5145 66.7625 35.4027 65.638 35.2908 65.455C35.151 65.2458 34.1443 65.115 32.5783 65.0627L30.0615 64.9843V61.9769V58.9696L32.7181 58.8389L35.3747 58.7081L35.4586 56.2238C35.5425 53.1903 35.6543 53.0857 38.6185 53.0857C40.2405 53.0857 40.9116 53.1903 41.359 53.5303ZM80.2573 58.4466C81.236 58.7081 82.4385 59.8326 82.774 60.8263C83.6689 63.3368 80.8725 66.0826 78.104 65.4027C75.3076 64.6966 74.189 61.4539 76.0067 59.388C76.538 58.7604 78.4675 58.0282 79.1387 58.1851C79.3624 58.2374 79.8658 58.3681 80.2573 58.4466ZM95.6376 58.7604C96.5884 59.2573 97.5951 60.8525 97.5951 61.82C97.5951 62.8661 96.9239 64.1736 96.057 64.8012C93.8479 66.4225 90.5201 65.3504 89.7651 62.7615C89.3456 61.2709 89.9888 59.5449 91.2752 58.8127C92.3658 58.1851 94.5749 58.1589 95.6376 58.7604ZM58.4731 64.3305C59.5637 64.9058 59.1443 65.8995 56.9351 67.9654C55.1454 69.6129 54.7539 69.8744 54.1666 69.7175C53.3836 69.5345 52.9642 68.7499 53.3277 68.1485C53.7472 67.4686 57.3266 64.069 57.6342 64.069C57.802 64.069 58.1655 64.1997 58.4731 64.3305ZM69.9385 64.3305C70.274 64.5135 70.4698 64.8797 70.4698 65.4027C70.4698 66.0303 70.0783 66.5794 68.764 67.887C66.8904 69.7175 66.3031 70.0052 65.4362 69.5606C64.4295 69.0638 64.7651 68.2269 66.9183 66.0826C68.0089 64.9843 69.0436 64.069 69.1555 64.069C69.2953 64.069 69.6309 64.1997 69.9385 64.3305ZM88.255 65.7688C89.9049 66.7886 90.576 69.2991 89.5693 70.8681C88.8702 71.9926 87.1364 72.7771 85.8221 72.6202C84.2561 72.4372 83.3613 71.7834 82.7181 70.4236C81.7673 68.4361 82.4385 66.5533 84.4798 65.5596C85.5705 65.0104 87.1644 65.0889 88.255 65.7688Z" fill="white"/>
</svg>